<?xml version="1.0" standalone="no"?>
<!DOCTYPE svg PUBLIC "-//W3C//DTD SVG 20010904//EN"
 "http://www.w3.org/TR/2001/REC-SVG-20010904/DTD/svg10.dtd">
<svg version="1.0" xmlns="http://www.w3.org/2000/svg"
 width="981.000000pt" height="956.000000pt" viewBox="0 0 981.000000 956.000000"
 preserveAspectRatio="xMidYMid meet">

<g transform="translate(0.000000,956.000000) scale(0.100000,-0.100000)"
fill="#000000" stroke="none">
<path d="M4735 9553 c-231 -11 -499 -46 -758 -99 -1267 -260 -2251 -849 -2939
-1761 -387 -511 -670 -1123 -853 -1838 -300 -1173 -213 -2255 259 -3240 99
-206 187 -358 331 -575 209 -313 406 -551 695 -840 388 -389 686 -619 1095
-843 246 -135 717 -330 834 -345 130 -17 232 22 273 105 23 48 23 49 26 514
l4 467 -369 5 c-394 5 -460 11 -633 63 -239 72 -440 220 -569 419 -25 39 -68
122 -97 185 -28 63 -66 144 -84 180 -92 183 -258 377 -424 494 -82 58 -102 78
-146 148 -28 44 -49 82 -47 84 2 3 59 20 127 38 l122 34 71 -18 c269 -68 442
-203 647 -505 152 -223 291 -351 474 -435 145 -67 189 -75 391 -74 163 0 189
3 280 27 55 15 134 44 175 65 69 34 77 41 101 92 37 79 233 589 228 595 -3 2
-74 16 -159 30 -487 82 -827 203 -1118 399 -415 278 -647 621 -786 1161 -197
771 -85 1543 292 2008 92 114 99 146 68 286 -39 168 -49 285 -43 469 10 312
94 634 176 676 41 22 109 20 238 -5 239 -46 496 -152 833 -344 108 -62 189
-100 232 -112 l66 -17 213 42 c408 81 686 107 1048 99 273 -6 407 -21 676 -74
365 -73 551 -45 817 124 296 188 591 290 856 296 93 2 121 -12 152 -73 28 -56
85 -282 106 -420 23 -160 15 -465 -16 -595 -11 -49 -23 -124 -27 -165 l-5 -75
74 -100 c262 -351 378 -699 395 -1180 11 -343 -34 -699 -128 -991 -205 -640
-637 -1059 -1319 -1278 -160 -52 -294 -83 -558 -130 -106 -19 -195 -36 -198
-39 -3 -3 8 -20 24 -38 129 -150 218 -357 259 -606 16 -98 18 -172 15 -836 -4
-798 -2 -833 49 -911 61 -91 194 -117 339 -66 370 129 753 317 1075 527 1565
1021 2412 2858 2175 4718 -114 897 -468 1736 -1031 2442 -643 808 -1528 1395
-2514 1669 -475 132 -1001 191 -1490 167z"/>
<path d="M2395 1870 l-28 -29 53 -71 c30 -38 55 -70 56 -70 2 0 17 21 35 46
l31 46 -33 35 c-19 19 -46 43 -60 53 -26 19 -26 19 -54 -10z"/>
<path d="M2726 1659 c-14 -17 -24 -35 -21 -39 8 -13 111 -70 126 -70 8 0 34
17 57 38 l44 37 -69 26 c-111 43 -108 43 -137 8z"/>
<path d="M3111 1634 c-11 -31 -21 -61 -21 -68 0 -21 54 -65 87 -72 26 -5 37
-1 70 30 l38 37 -70 64 c-38 36 -72 65 -76 65 -3 0 -16 -25 -28 -56z"/>
<path d="M3519 1639 c-24 -18 -46 -33 -48 -35 -5 -5 69 -94 77 -94 4 1 31 22
60 48 l52 47 -29 33 c-37 40 -57 40 -112 1z"/>
</g>
</svg>
